<svg data-v-0dd9719b="" version="1.0" xmlns="http://www.w3.org/2000/svg" xmlns:xlink="http://www.w3.org/1999/xlink" width="100%" height="100%" viewBox="0 0 340.000000 250.000000" preserveAspectRatio="xMidYMid meet" color-interpolation-filters="sRGB" style="margin: auto;"> <rect data-v-0dd9719b="" x="0" y="0" width="100%" height="100%" fill="#fff" fill-opacity="1" class="background"></rect> <rect data-v-0dd9719b="" x="0" y="0" width="100%" height="100%" fill="url(#watermark)" fill-opacity="1" class="watermarklayer"></rect> <g data-v-0dd9719b="" fill="#333" class="icon-text-wrapper icon-svg-group iconsvg" transform="translate(81.44499969482422,83.25881576538086)"><g class="iconsvg-imagesvg" transform="translate(58.55500030517578,0)"><g><rect fill="#333" fill-opacity="0" stroke-width="2" x="0" y="0" width="60" height="47.012364251798225" class="image-rect"></rect> <svg x="0" y="0" width="60" height="47.012364251798225" filtersec="colorsb3141530514" class="image-svg-svg primary" style="overflow: visible;"><svg xmlns="http://www.w3.org/2000/svg" viewBox="0.002054929733276367 0 67.96073150634766 53.250003814697266"><defs><linearGradient id="a47f7649f-cdc2-4f95-b340-d83e91e0db1e" y1="26.63" x2="67.93" y2="26.63" gradientUnits="userSpaceOnUse"><stop offset="0" stop-color="#fbe20a"></stop><stop offset=".47" stop-color="#fc23c9"></stop><stop offset=".99" stop-color="#3579ff"></stop></linearGradient></defs><path d="M34.78 53.24H30.6c-3 0-4.39-1.07-5.3-4.06-1.2-3.93-2.3-7.89-3.47-11.84-.19-.64-.2-1.67-.94-1.72-1-.07-.89 1.07-1.1 1.74-1.19 3.94-2.29 7.9-3.51 11.83-.93 3-2.39 4-5.52 4.06H2.18c-2.35 0-2.49-.16-1.85-2.35q3.53-12.15 7.1-24.29c1.49-5.08 3-10.17 4.5-15.24.94-3.09 2.45-4.19 5.66-4.24h7.53c2.22 0 2.64-.61 2.13-2.67C26.16 0 26.16 0 30.82 0 33 0 35.14 0 37.3.07c2.86.11 4.37 1.23 5.22 4 1.25 4 2.38 8 3.59 12 .18.61.1 1.62 1 1.57s.86-1 1-1.63c1.09-3.68 2.12-7.37 3.18-11.06S53.92 0 57.81 0H66c1.64 0 2.31.51 1.79 2.27-4 13.36-7.88 26.75-11.85 40.11-.83 2.81-2.15 3.71-5.06 3.75h-7.94c-2.21 0-2.75.79-2.22 2.88 1.06 4.2 1.06 4.2-3.4 4.2zm11.41-30.68c.06-1.72-.88-2-2-2H33.95a2.2 2.2 0 0 1-2.52-1.89c-.61-2.43-1.36-4.82-2.1-7.22-.17-.55-.18-1.42-1-1.4s-.8.88-1 1.44Q24.62 20.71 22 30c-.66 2.31-.16 3 2.2 3 3.34.05 6.68.07 10 0a2.09 2.09 0 0 1 2.36 1.8c.68 2.49 1.44 5 2.17 7.42.15.52.16 1.27.8 1.33.9.1.81-.81 1-1.35 1.82-6.07 3.6-12.15 5.39-18.23.08-.58.21-1.13.27-1.41z" fill="url(#a47f7649f-cdc2-4f95-b340-d83e91e0db1e)"></path></svg></svg> <!----></g></g> <g transform="translate(0,54.012367248535156)"><g data-gra="path-name" fill-rule="" class="tp-name iconsvg-namesvg"><g transform="scale(1)"><g><path d="M15.94 0.37Q11.78 0.37 8.66-1.43 5.54-3.22 3.87-6.56 2.2-9.9 2.2-14.39L2.2-14.39Q2.2-18.87 3.87-22.19 5.54-25.52 8.66-27.31 11.78-29.1 15.94-29.1L15.94-29.1Q18.63-29.1 20.99-28.31 23.36-27.51 25.19-26.01L25.19-26.01Q25.72-25.6 25.92-25.15 26.13-24.7 26.13-24.05L26.13-24.05Q26.13-23.15 25.64-22.54 25.15-21.93 24.46-21.93L24.46-21.93Q23.64-21.93 22.79-22.5L22.79-22.5Q21.03-23.8 19.52-24.31 18.02-24.82 16.18-24.82L16.18-24.82Q11.94-24.82 9.76-22.17 7.58-19.52 7.58-14.39L7.58-14.39Q7.58-9.21 9.76-6.56 11.94-3.91 16.18-3.91L16.18-3.91Q17.93-3.91 19.42-4.44 20.91-4.97 22.79-6.24L22.79-6.24Q23.19-6.48 23.6-6.64 24.01-6.81 24.46-6.81L24.46-6.81Q25.15-6.81 25.64-6.2 26.13-5.58 26.13-4.69L26.13-4.69Q26.13-4.08 25.92-3.61 25.72-3.14 25.19-2.73L25.19-2.73Q23.36-1.22 20.99-0.43 18.63 0.37 15.94 0.37L15.94 0.37ZM56.25-3.14Q56.49-2.61 56.49-2.08L56.49-2.08Q56.49-1.14 55.74-0.49 54.99 0.16 54.01 0.16L54.01 0.16Q53.36 0.16 52.79-0.18 52.21-0.53 51.89-1.26L51.89-1.26 49.44-6.73 35.1-6.73 32.65-1.26Q32.32-0.53 31.75-0.18 31.18 0.16 30.49 0.16L30.49 0.16Q29.55 0.16 28.78-0.49 28-1.14 28-2.08L28-2.08Q28-2.61 28.25-3.14L28.25-3.14 39.5-27.31Q39.86-28.13 40.62-28.55 41.37-28.98 42.23-28.98L42.23-28.98Q43.08-28.98 43.84-28.55 44.59-28.13 44.96-27.31L44.96-27.31 56.25-3.14ZM42.27-22.91L36.89-10.8 47.65-10.8 42.27-22.91ZM66.32 0.2Q65.1 0.2 64.38-0.51 63.67-1.22 63.67-2.4L63.67-2.4 63.67-24.42 56.25-24.42Q53.8-24.42 53.8-26.58L53.8-26.58Q53.8-28.74 56.25-28.74L56.25-28.74 76.35-28.74Q78.79-28.74 78.79-26.58L78.79-26.58Q78.79-24.42 76.35-24.42L76.35-24.42 68.93-24.42 68.93-2.4Q68.93-1.22 68.21-0.51 67.5 0.2 66.32 0.2L66.32 0.2ZM91.3 0.2Q90.08 0.2 89.37-0.51 88.65-1.22 88.65-2.4L88.65-2.4 88.65-24.42 81.24-24.42Q78.79-24.42 78.79-26.58L78.79-26.58Q78.79-28.74 81.24-28.74L81.24-28.74 101.33-28.74Q103.78-28.74 103.78-26.58L103.78-26.58Q103.78-24.42 101.33-24.42L101.33-24.42 93.91-24.42 93.91-2.4Q93.91-1.22 93.2-0.51 92.49 0.2 91.3 0.2L91.3 0.2ZM129.38-3.14Q129.62-2.61 129.62-2.08L129.62-2.08Q129.62-1.14 128.87-0.49 128.11 0.16 127.13 0.16L127.13 0.16Q126.48 0.16 125.91-0.18 125.34-0.53 125.01-1.26L125.01-1.26 122.57-6.73 108.22-6.73 105.77-1.26Q105.45-0.53 104.88-0.18 104.31 0.16 103.61 0.16L103.61 0.16Q102.68 0.16 101.9-0.49 101.13-1.14 101.13-2.08L101.13-2.08Q101.13-2.61 101.37-3.14L101.37-3.14 112.62-27.31Q112.99-28.13 113.74-28.55 114.5-28.98 115.35-28.98L115.35-28.98Q116.21-28.98 116.96-28.55 117.72-28.13 118.08-27.31L118.08-27.31 129.38-3.14ZM115.39-22.91L110.01-10.8 120.77-10.8 115.39-22.91ZM136.06 0Q134.88 0 134.23-0.65 133.57-1.3 133.57-2.45L133.57-2.45 133.57-26.33Q133.57-27.51 134.29-28.23 135-28.94 136.18-28.94L136.18-28.94Q137.4-28.94 138.12-28.23 138.83-27.51 138.83-26.33L138.83-26.33 138.83-4.32 150.29-4.32Q152.73-4.32 152.73-2.16L152.73-2.16Q152.73 0 150.29 0L150.29 0 136.06 0ZM178.49-3.95Q179.31-3.18 179.31-2.2L179.31-2.2Q179.31-1.26 178.59-0.55 177.88 0.16 176.9 0.16L176.9 0.16Q175.88 0.16 175.03-0.69L175.03-0.69 161.45-13.41 161.45-2.4Q161.45-1.22 160.74-0.49 160.03 0.24 158.8 0.24L158.8 0.24Q157.62 0.24 156.91-0.49 156.2-1.22 156.2-2.4L156.2-2.4 156.2-26.33Q156.2-27.51 156.91-28.23 157.62-28.94 158.8-28.94L158.8-28.94Q160.03-28.94 160.74-28.23 161.45-27.51 161.45-26.33L161.45-26.33 161.45-15.86 174.58-28.17Q175.31-28.9 176.25-28.9L176.25-28.9Q177.19-28.9 177.9-28.19 178.61-27.47 178.61-26.54L178.61-26.54Q178.61-25.6 177.8-24.82L177.8-24.82 166.83-14.8 178.49-3.95Z" transform="translate(-2.200000047683716, 29.100000381469727)"></path></g> <!----> <!----> <!----> <!----> <!----> <!----> <!----></g></g> <!----></g></g><defs v-gra="od"></defs></svg>